<?xml version="1.0" standalone="no"?>
<!DOCTYPE svg PUBLIC "-//W3C//DTD SVG 20010904//EN"
 "http://www.w3.org/TR/2001/REC-SVG-20010904/DTD/svg10.dtd">
<svg version="1.0" xmlns="http://www.w3.org/2000/svg"
 width="694.000000pt" height="670.000000pt" viewBox="0 0 694.000000 670.000000"
 preserveAspectRatio="xMidYMid meet">

<g transform="translate(0.000000,670.000000) scale(0.100000,-0.100000)"
fill="#000000" stroke="none">
<path d="M0 3350 l0 -3350 3470 0 3470 0 0 3350 0 3350 -3470 0 -3470 0 0
-3350z m4943 2805 c-150 -46 -290 -103 -446 -181 -71 -35 -134 -61 -140 -57
-5 3 -7 1 -4 -4 4 -6 0 -13 -8 -16 -12 -5 -12 -1 -4 21 6 15 11 29 12 30 1 2
-13 12 -32 22 l-35 17 49 22 c123 54 338 115 550 156 170 33 188 29 58 -10z
m-2339 -25 c141 -36 263 -117 335 -224 48 -71 46 -73 -11 -16 -65 65 -131 103
-213 125 -174 45 -384 -16 -523 -152 -142 -140 -168 -357 -98 -818 24 -154 39
-297 43 -397 3 -87 7 -158 9 -158 1 0 24 9 51 21 101 44 224 79 241 70 15 -8
14 -11 -8 -20 -14 -5 -19 -10 -12 -10 9 -1 13 -16 11 -53 -3 -85 25 -188 50
-188 13 0 92 102 188 240 288 417 576 756 772 909 34 27 41 30 32 14 -15 -28
-14 -33 4 -33 8 0 15 -8 15 -19 0 -11 12 -23 30 -31 17 -7 30 -19 30 -26 0 -8
6 -14 14 -14 8 0 17 -7 20 -16 3 -8 10 -12 16 -9 22 13 7 -8 -52 -76 -214
-245 -395 -475 -384 -487 9 -8 290 54 426 95 325 97 483 241 484 443 1 58 -4
85 -22 121 -67 137 -254 231 -488 246 -160 10 -454 -44 -637 -116 -170 -68
-376 -188 -522 -306 -93 -75 -94 -75 -27 0 130 143 333 308 506 410 321 189
670 263 957 205 193 -40 298 -91 414 -205 120 -117 175 -257 175 -440 -1 -164
-52 -276 -187 -406 -186 -179 -474 -305 -860 -375 -20 -4 -15 -12 49 -72 205
-192 311 -418 504 -1071 188 -637 304 -935 476 -1220 21 -34 38 -67 38 -71 0
-5 12 -22 26 -39 14 -17 23 -35 19 -41 -4 -6 -1 -9 7 -8 7 2 12 -5 12 -14 -1
-10 2 -15 7 -12 18 11 21 -27 4 -46 -22 -24 -13 -27 10 -3 14 14 18 14 26 2 6
-9 4 -15 -6 -17 -8 -2 -12 -9 -10 -15 3 -7 0 -19 -5 -27 -9 -13 -11 -13 -19 0
-6 8 -24 15 -42 15 -19 0 -34 6 -37 14 -3 8 0 11 6 7 6 -3 13 -2 17 4 4 6 -8
10 -31 10 -21 0 -34 -3 -31 -6 4 -4 -2 -19 -13 -34 -24 -33 -26 -54 -4 -25 16
19 16 19 12 -7 -4 -19 -1 -25 9 -21 8 3 12 12 9 19 -3 7 -1 16 5 20 13 8 36
-12 42 -37 5 -20 5 -20 -15 -2 -18 15 -21 16 -15 1 4 -11 -1 -18 -16 -22 -25
-6 -70 31 -62 52 2 7 1 10 -5 7 -17 -11 -209 244 -312 415 -159 266 -257 496
-448 1055 -86 253 -148 412 -201 517 -82 163 -203 315 -320 402 -50 38 -66 66
-36 66 32 0 96 117 111 203 9 50 -12 197 -30 204 -10 4 -11 10 -3 26 32 66
-76 -87 -186 -263 -466 -745 -1047 -1243 -1490 -1276 -244 -18 -447 129 -510
372 -22 83 -19 233 5 330 26 103 105 263 179 361 92 122 331 340 331 302 0 -7
3 -9 8 -5 4 4 7 13 7 19 0 5 6 12 13 15 9 3 10 -3 2 -23 -9 -24 -8 -26 12 -19
19 6 21 5 11 -7 -10 -12 -8 -17 8 -27 11 -7 25 -10 32 -6 7 4 -4 -11 -24 -32
-126 -136 -181 -210 -229 -309 -56 -116 -73 -190 -68 -310 4 -116 26 -174 90
-236 145 -141 388 -67 707 216 127 111 413 427 400 440 -6 5 -156 -58 -258
-109 -183 -93 -367 -219 -508 -350 -34 -31 -63 -56 -66 -56 -3 0 6 28 19 63
33 82 79 235 99 322 61 279 61 474 -5 975 -26 195 -24 433 4 535 37 135 115
265 217 361 68 64 105 88 120 78 8 -4 9 -3 5 4 -13 21 160 94 264 112 88 15
224 11 304 -10z m-177 -1216 c-3 -3 -12 -4 -19 -1 -8 3 -5 6 6 6 11 1 17 -2
13 -5z m-40 -10 c-3 -3 -12 -4 -19 -1 -8 3 -5 6 6 6 11 1 17 -2 13 -5z m2214
-3118 c1 -6 1 -17 0 -25 -2 -8 2 -10 10 -5 8 4 10 3 5 -5 -10 -16 -26 -4 -26
20 0 10 -5 19 -10 19 -6 0 -8 -12 -5 -27 5 -26 5 -27 -6 -6 -14 27 -5 55 16
47 8 -3 16 -11 16 -18z m-181 10 c0 -3 -4 -8 -10 -11 -5 -3 -10 -1 -10 4 0 6
5 11 10 11 6 0 10 -2 10 -4z m224 -72 c5 -14 4 -15 -9 -4 -17 14 -19 20 -6 20
5 0 12 -7 15 -16z m-204 -46 c0 -6 -7 -5 -15 2 -8 7 -15 17 -15 22 0 6 7 5 15
-2 8 -7 15 -17 15 -22z m89 -45 c-13 -16 -24 -29 -25 -31 0 -1 -9 6 -18 17
-13 14 -14 21 -5 27 7 4 10 3 5 -4 -13 -21 16 -24 35 -3 29 31 36 25 8 -6z
m205 -9 c5 -14 4 -15 -9 -4 -17 14 -19 20 -6 20 5 0 12 -7 15 -16z"/>
<path d="M3560 5330 c0 -5 5 -10 11 -10 5 0 7 5 4 10 -3 6 -8 10 -11 10 -2 0
-4 -4 -4 -10z"/>
<path d="M4281 1868 c8 -7 22 -22 32 -33 18 -19 18 -19 0 12 -10 18 -24 33
-32 33 -13 0 -13 -2 0 -12z"/>
<path d="M4507 1855 c-8 -8 -17 -11 -21 -8 -3 4 -6 1 -6 -5 0 -18 15 -14 35 8
21 23 14 27 -8 5z"/>
<path d="M4337 1808 c-3 -8 5 -14 19 -14 20 -2 21 0 9 12 -17 17 -22 17 -28 2z"/>
</g>
</svg>
